<svg xmlns="http://www.w3.org/2000/svg" xmlns:xlink="http://www.w3.org/1999/xlink" width="1080" zoomAndPan="magnify" viewBox="0 0 810 809.999993" height="1080" preserveAspectRatio="xMidYMid meet" version="1.0"><path fill="#9e090f" d="M 557.417969 428.574219 L 557.417969 613.765625 C 557.417969 613.765625 560.589844 644.714844 530.261719 644.714844 C 499.957031 644.714844 494.257812 616.910156 494.257812 616.910156 L 494.257812 428.542969 C 455.578125 410.59375 427.570312 361.34375 427.570312 302.71875 C 427.570312 228.960938 471.566406 169.179688 525.875 169.179688 C 580.1875 169.179688 624.238281 228.960938 624.238281 302.71875 C 624.238281 361.390625 596.179688 410.671875 557.417969 428.574219 Z M 315.175781 436.226562 L 315.175781 604.921875 C 315.175781 604.921875 315.871094 641.253906 285.699219 641.253906 C 255.523438 641.253906 255.523438 605.613281 255.523438 605.613281 L 255.523438 435.535156 C 255.523438 435.535156 192.828125 423.875 187.359375 362.160156 C 181.871094 300.394531 192.15625 194.117188 192.15625 194.117188 C 192.15625 194.117188 196.28125 172.140625 210.675781 172.140625 C 225.09375 172.140625 227.824219 196.183594 227.824219 196.183594 L 227.824219 325.773438 C 226.972656 334.132812 236.417969 343.59375 250.445312 343.59375 C 269.65625 343.59375 269.65625 329.898438 269.65625 329.898438 L 269.65625 197.523438 C 269.65625 197.523438 272.421875 170.113281 288.871094 170.113281 C 305.324219 170.113281 305.324219 198.214844 305.324219 198.214844 L 305.324219 331.425781 C 305.324219 331.425781 304.859375 346.816406 322.550781 346.816406 C 344.472656 346.816406 344.058594 332.453125 344.058594 332.453125 L 344.058594 197.523438 C 344.058594 197.523438 342.355469 165.3125 365.667969 165.3125 C 384.195312 165.3125 384.886719 196.851562 384.886719 196.851562 C 384.886719 196.851562 386.664062 347.335938 386.664062 365.851562 C 386.664062 384.367188 367.996094 417.710938 315.175781 436.226562 Z M 405.007812 0.0234375 C 181.695312 0.0234375 0.0234375 181.695312 0.0234375 405 C 0.0234375 628.304688 181.695312 809.976562 405.007812 809.976562 C 628.304688 809.976562 809.976562 628.304688 809.976562 405 C 809.976562 181.695312 628.304688 0.0234375 405.007812 0.0234375 " fill-opacity="1" fill-rule="nonzero"/></svg>